<?xml version="1.0" encoding="UTF-8"?>
<svg version="1.1" xmlns="http://www.w3.org/2000/svg" width="1024" height="511">
<path d="M0 0 C337.92 0 675.84 0 1024 0 C1024 168.63 1024 337.26 1024 511 C686.08 511 348.16 511 0 511 C0 342.37 0 173.74 0 0 Z " fill="#FEFEFE" transform="translate(0,0)"/>
<path d="M0 0 C217.8 0 435.6 0 660 0 C660 26.73 660 53.46 660 81 C646.635 81.495 646.635 81.495 633 82 C620.03452704 85.88964189 611.05343844 90.43340532 603.6875 102.07421875 C598.19440848 112.35357016 597.27899859 124.91324907 599.6875 136.23046875 C603.47777348 147.42756833 610.51130327 156.76138683 621.0625 162.3125 C633.55620399 168.35431309 645.66969227 166.4882033 660 167 C660 193.73 660 220.46 660 248 C442.2 248 224.4 248 0 248 C0 221.27 0 194.54 0 167 C8.91 166.67 17.82 166.34 27 166 C39.88754845 161.70415052 50.03027156 157.39870923 56.5078125 145.1484375 C61.43766408 134.47178752 63.49489805 122.40810076 60.40527344 110.75732422 C58.80239483 106.49780358 56.56017872 102.76466198 54 99 C53.52175781 98.27554688 53.04351562 97.55109375 52.55078125 96.8046875 C45.87785397 87.97118491 34.5225537 83.75375895 24 82 C16.08 81.67 8.16 81.34 0 81 C0 54.27 0 27.54 0 0 Z " fill="#0177F7" transform="translate(182,131)"/>
<path d="M0 0 C3.96 0 7.92 0 12 0 C12.20681396 0.92337158 12.41362793 1.84674316 12.62670898 2.7980957 C13.39516705 6.22562151 14.16500903 9.65283035 14.93579102 13.07983398 C15.2690287 14.56278221 15.60171517 16.04585441 15.93383789 17.52905273 C16.41147118 19.66162468 16.89108862 21.79374209 17.37109375 23.92578125 C17.65911865 25.20880127 17.94714355 26.49182129 18.24389648 27.8137207 C18.94909356 30.99502027 18.94909356 30.99502027 20 34 C20.15855469 33.13761719 20.31710937 32.27523437 20.48046875 31.38671875 C22.50651851 20.78633688 25.16481422 10.41062289 28 0 C31.96 0 35.92 0 40 0 C46.57446809 23.91489362 46.57446809 23.91489362 49 34 C49.24234375 32.80246094 49.4846875 31.60492188 49.734375 30.37109375 C51.83093161 20.14247071 54.1748715 10.05324983 57 0 C60.96 0 64.92 0 69 0 C64.96505807 16.54551608 60.57983859 32.90157206 55 49 C50.71 49 46.42 49 42 49 C41.59007812 47.49308594 41.18015625 45.98617187 40.7578125 44.43359375 C40.21356443 42.43488963 39.66929233 40.43619206 39.125 38.4375 C38.85558594 37.44685547 38.58617187 36.45621094 38.30859375 35.43554688 C36.90429417 30.28073987 35.48295518 25.13275265 34 20 C33.82871582 20.70084717 33.65743164 21.40169434 33.48095703 22.1237793 C32.69938169 25.31261724 31.9122487 28.50005815 31.125 31.6875 C30.85558594 32.79029297 30.58617187 33.89308594 30.30859375 35.02929688 C30.04433594 36.09599609 29.78007812 37.16269531 29.5078125 38.26171875 C29.26691895 39.24100342 29.02602539 40.22028809 28.77783203 41.22924805 C28 44 28 44 26 49 C21.38 49 16.76 49 12 49 C11.75765625 47.94683594 11.5153125 46.89367187 11.265625 45.80859375 C8.15074029 32.3646634 4.6615109 19.05955211 0.734375 5.828125 C0 3 0 3 0 0 Z " fill="#F6F9FB" transform="translate(294,232)"/>
<path d="M0 0 C1.94361026 1.22426696 3.80704778 2.48985849 5.6328125 3.8828125 C5.6328125 2.5628125 5.6328125 1.2428125 5.6328125 -0.1171875 C8.9328125 -0.1171875 12.2328125 -0.1171875 15.6328125 -0.1171875 C15.6328125 12.4228125 15.6328125 24.9628125 15.6328125 37.8828125 C12.3328125 37.8828125 9.0328125 37.8828125 5.6328125 37.8828125 C5.6328125 36.5628125 5.6328125 35.2428125 5.6328125 33.8828125 C4.240625 34.841875 4.240625 34.841875 2.8203125 35.8203125 C-2.1956655 39.06594532 -6.52180056 39.60347664 -12.3671875 38.8828125 C-17.94300623 36.04230107 -22.04961524 31.72626393 -24.3671875 25.8828125 C-24.703125 22.421875 -24.703125 22.421875 -24.7421875 18.5078125 C-24.77054687 17.22132813 -24.79890625 15.93484375 -24.828125 14.609375 C-24.1574201 9.18689641 -21.54261149 5.44935056 -17.3046875 2.0703125 C-12.18784287 -1.74010372 -5.89496968 -2.7821144 0 0 Z " fill="#F8FAFC" transform="translate(391.3671875,243.1171875)"/>
<path d="M0 0 C4.62283511 2.65384979 8.30472435 6.6719487 10.6875 11.4375 C11.37241634 18.73578885 11.45164651 25.52837905 6.6875 31.4375 C0.2141494 37.28398464 -4.25692391 38.86968075 -12.9765625 38.7734375 C-17.80147077 38.28755681 -20.8777118 36.83980793 -24.3125 33.4375 C-29.10452193 27.15622815 -30.9807071 22.31730069 -30.3125 14.4375 C-29.18030692 8.69343785 -26.71741504 5.334668 -22.2265625 1.6640625 C-15.5714347 -2.60065205 -7.25622414 -3.25134658 0 0 Z " fill="#F5F8FB" transform="translate(544.3125,243.5625)"/>
<path d="M0 0 C3.83151744 2.41144454 6.93032079 5.50003889 9.234375 9.40625 C9.234375 10.72625 9.234375 12.04625 9.234375 13.40625 C-1.51345109 14.1888587 -1.51345109 14.1888587 -4.546875 12.29296875 C-4.9903125 11.83535156 -5.43375 11.37773437 -5.890625 10.90625 C-9.54390951 7.72948086 -11.71923344 7.73275571 -16.42578125 7.98046875 C-19.7915923 8.59294522 -21.51217569 9.87111952 -23.765625 12.40625 C-26.47667408 16.90869901 -26.2909131 21.29075204 -25.765625 26.40625 C-24.2043857 30.69965807 -22.62702396 33.01259416 -18.765625 35.40625 C-14.11971243 36.1767916 -9.97016014 35.97164405 -5.703125 33.96875 C-3.87548728 32.55162332 -3.87548728 32.55162332 -2.765625 31.40625 C-0.74598301 31.33380947 1.27604624 31.32247812 3.296875 31.34375 C4.95396484 31.35728516 4.95396484 31.35728516 6.64453125 31.37109375 C7.49917969 31.38269531 8.35382813 31.39429688 9.234375 31.40625 C8.00025305 37.731125 4.29923796 40.84375314 -0.765625 44.40625 C-6.65174468 47.81084876 -13.10141491 48.37946566 -19.765625 47.40625 C-27.51948567 44.89600734 -33.16720868 40.46821673 -36.89453125 33.20703125 C-38.97483361 26.51834609 -39.0834706 17.44215214 -36.890625 10.7265625 C-28.9691182 -2.66703781 -14.01632356 -6.41269706 0 0 Z " fill="#F5F9FB" transform="translate(499.765625,234.59375)"/>
<path d="M0 0 C4.09957446 2.57914976 6.3052758 5.71817855 8.32421875 10.140625 C9.01171875 13.265625 9.01171875 13.265625 9.01171875 21.265625 C-0.22828125 21.265625 -9.46828125 21.265625 -18.98828125 21.265625 C-16.66576699 26.15058025 -16.66576699 26.15058025 -13.98828125 27.265625 C-10.98828125 27.59895833 -10.98828125 27.59895833 -7.98828125 27.265625 C-7.32828125 26.275625 -6.66828125 25.285625 -5.98828125 24.265625 C-2.94921875 23.97265625 -2.94921875 23.97265625 0.63671875 24.078125 C1.82523438 24.10519531 3.01375 24.13226563 4.23828125 24.16015625 C5.15351562 24.19496094 6.06875 24.22976563 7.01171875 24.265625 C4.99037786 29.75999706 2.21623916 32.74345614 -2.61328125 36.078125 C-8.13202853 38.01990645 -13.79367859 38.509447 -19.3359375 36.3515625 C-24.74017433 33.22013555 -27.99520976 29.24483947 -29.98828125 23.265625 C-30.64962614 15.94746434 -30.72918798 9.21932182 -25.98828125 3.265625 C-18.17796023 -3.83466684 -9.40842618 -4.66316411 0 0 Z " fill="#F2F7FB" transform="translate(702.98828125,244.734375)"/>
<path d="M0 0 C3.63 0 7.26 0 11 0 C11 0.99 11 1.98 11 3 C11.69351562 2.51660156 12.38703125 2.03320312 13.1015625 1.53515625 C18.1695723 -1.14911309 23.42195333 -0.85077219 29 0 C33.95729784 2.49110444 36.26408842 5.81361775 38 11 C38.22705078 14.04614258 38.22705078 14.04614258 38.1953125 17.39453125 C38.18886719 18.59658203 38.18242187 19.79863281 38.17578125 21.03710938 C38.15902344 22.28298828 38.14226562 23.52886719 38.125 24.8125 C38.11597656 26.07771484 38.10695313 27.34292969 38.09765625 28.64648438 C38.07412478 31.76440405 38.03825489 34.88222622 38 38 C34.04 38 30.08 38 26 38 C25.95101563 36.14632812 25.90203125 34.29265625 25.8515625 32.3828125 C25.77654586 29.96352598 25.70099757 27.5442559 25.625 25.125 C25.5940625 23.90167969 25.563125 22.67835938 25.53125 21.41796875 C25.49257813 20.25136719 25.45390625 19.08476562 25.4140625 17.8828125 C25.3826416 16.80402832 25.3512207 15.72524414 25.31884766 14.61376953 C25.25323678 11.84238346 25.25323678 11.84238346 23 10 C17.90610287 9.33679583 17.90610287 9.33679583 13.40869141 11.16259766 C11.45119692 13.71582183 11.5693719 15.56674723 11.48828125 18.76171875 C11.45283203 19.87998047 11.41738281 20.99824219 11.38085938 22.15039062 C11.34702148 23.90125977 11.34702148 23.90125977 11.3125 25.6875 C11.27833984 26.86634766 11.24417969 28.04519531 11.20898438 29.25976562 C11.12642761 32.17284019 11.06153987 35.08640568 11 38 C7.37 38 3.74 38 0 38 C0 25.46 0 12.92 0 0 Z " fill="#F6F9FB" transform="translate(417,243)"/>
<path d="M0 0 C3.63 0 7.26 0 11 0 C11.01981934 0.77190674 11.03963867 1.54381348 11.06005859 2.33911133 C11.15521143 5.83058958 11.26493047 9.32146152 11.375 12.8125 C11.4059375 14.02744141 11.436875 15.24238281 11.46875 16.49414062 C11.50742187 17.65751953 11.54609375 18.82089844 11.5859375 20.01953125 C11.6173584 21.09307861 11.6487793 22.16662598 11.68115234 23.27270508 C11.81592307 26.2160765 11.81592307 26.2160765 14 29 C19.09209675 29.70475123 19.09209675 29.70475123 23.59130859 27.84887695 C25.58048247 25.23812934 25.43225234 23.27765419 25.51171875 20.01953125 C25.54716797 18.85615234 25.58261719 17.69277344 25.61914062 16.49414062 C25.64169922 15.27919922 25.66425781 14.06425781 25.6875 12.8125 C25.72166016 11.58595703 25.75582031 10.35941406 25.79101562 9.09570312 C25.8735941 6.06389322 25.94271369 3.03237621 26 0 C29.63 0 33.26 0 37 0 C37 12.87 37 25.74 37 39 C33.7 39 30.4 39 27 39 C27 37.68 27 36.36 27 35 C25.6078125 35.9590625 25.6078125 35.9590625 24.1875 36.9375 C19.56184343 39.9305719 15.44831489 40.75327081 10 40 C4.89790078 37.30455136 1.82618963 34.4785689 0 29 C-0.08358958 26.78910055 -0.10731764 24.57573922 -0.09765625 22.36328125 C-0.09443359 21.06455078 -0.09121094 19.76582031 -0.08789062 18.42773438 C-0.07953531 17.05598892 -0.07107037 15.68424413 -0.0625 14.3125 C-0.05748335 12.92903805 -0.05292073 11.54557437 -0.04882812 10.16210938 C-0.03702529 6.77469605 -0.02056019 3.38736967 0 0 Z " fill="#F2F7FB" transform="translate(562,242)"/>
<path d="M0 0 C3.99430337 2.32449331 6.78619238 4.68898425 8.62109375 9.046875 C8.62109375 10.036875 8.62109375 11.026875 8.62109375 12.046875 C7.03862668 12.12841433 5.45493102 12.18631057 3.87109375 12.234375 C2.989375 12.26917969 2.10765625 12.30398437 1.19921875 12.33984375 C-1.85725082 11.99251766 -3.01760841 10.93591327 -5.37890625 9.046875 C-8.54623046 8.79600776 -8.54623046 8.79600776 -11.37890625 9.046875 C-12.03890625 10.366875 -12.69890625 11.686875 -13.37890625 13.046875 C-12.58226562 13.22863281 -11.785625 13.41039062 -10.96484375 13.59765625 C1.86043898 16.64015033 1.86043898 16.64015033 7.05859375 21.171875 C9.00051617 24.74501225 9.00193778 26.93101797 8.375 30.890625 C6.89070121 35.13587336 3.55299786 37.08092294 -0.37890625 39.046875 C-8.0273983 39.69940369 -14.24767576 39.97851691 -20.37890625 35.046875 C-22.63599664 32.06169093 -23.37890625 30.79768672 -23.37890625 27.046875 C-20.07890625 26.716875 -16.77890625 26.386875 -13.37890625 26.046875 C-12.71890625 27.036875 -12.05890625 28.026875 -11.37890625 29.046875 C-9.40143503 29.40985436 -9.40143503 29.40985436 -7.25390625 29.234375 C-5.97515625 29.1725 -4.69640625 29.110625 -3.37890625 29.046875 C-3.04890625 27.726875 -2.71890625 26.406875 -2.37890625 25.046875 C-3.16394531 24.87671875 -3.94898438 24.7065625 -4.7578125 24.53125 C-19.29094105 21.1788228 -19.29094105 21.1788228 -23.37890625 15.046875 C-23.71707007 11.39470573 -23.67023751 8.78377172 -22.31640625 5.359375 C-16.64123339 -1.41421841 -8.24130887 -3.30193656 0 0 Z " fill="#F3F8FB" transform="translate(659.37890625,242.953125)"/>
<path d="M0 0 C0 3.96 0 7.92 0 12 C-2.27864583 12.1953125 -4.55729167 12.390625 -6.8359375 12.5859375 C-9.20334191 12.82892588 -9.20334191 12.82892588 -11 15 C-11.37135915 17.52037964 -11.37135915 17.52037964 -11.4140625 20.4453125 C-11.47207031 22.05986328 -11.47207031 22.05986328 -11.53125 23.70703125 C-11.5621875 24.83496094 -11.593125 25.96289062 -11.625 27.125 C-11.68300781 28.82849609 -11.68300781 28.82849609 -11.7421875 30.56640625 C-11.83667233 33.37732987 -11.91943321 36.18864304 -12 39 C-15.63 39 -19.26 39 -23 39 C-23 26.46 -23 13.92 -23 1 C-19.37 1 -15.74 1 -12 1 C-12 2.32 -12 3.64 -12 5 C-11.2575 4.360625 -10.515 3.72125 -9.75 3.0625 C-6.24478911 0.43359183 -4.30409596 0 0 0 Z " fill="#F5F9FC" transform="translate(632,242)"/>
<path d="M0 0 C4.33764633 2.36598891 4.33764633 2.36598891 6 5 C6.80231179 8.49578709 6.75203605 11.49815276 6 15 C3.99802059 18.12809283 2.71400832 19.62325758 -0.97265625 20.43359375 C-4.54043862 20.65366257 -6.59809173 20.3091602 -9.4375 18.125 C-12.52683696 13.92350174 -12.76600718 10.10671454 -12 5 C-8.67829664 0.0677738 -5.83102014 -1.02298599 0 0 Z " fill="#0779F3" transform="translate(390,252)"/>
<path d="M0 0 C2.8100346 1.79363911 4.50940468 3.01880935 6 6 C6.45269417 10.52694175 6.69261379 13.70504096 4 17.5 C0.66617287 20.27818928 -0.84322868 20.88357012 -5.0625 20.5 C-8.747721 19.54897523 -9.99126805 18.20141654 -12 15 C-12.82030905 10.09266442 -12.95780899 5.71607444 -10.5 1.3125 C-6.99226997 -0.52905827 -3.82415812 -0.77393676 0 0 Z " fill="#0A7CF6" transform="translate(538,252)"/>
<path d="M0 0 C4.55555556 0.55555556 4.55555556 0.55555556 6 2 C6.25098924 5.47208807 6.18522096 8.9574062 6.1875 12.4375 C6.19974609 13.41783203 6.21199219 14.39816406 6.22460938 15.40820312 C6.22750977 16.81295898 6.22750977 16.81295898 6.23046875 18.24609375 C6.23457764 19.10904053 6.23868652 19.9719873 6.24291992 20.86108398 C6 23 6 23 4 25 C-0.55555556 24.44444444 -0.55555556 24.44444444 -2 23 C-2.25098924 19.52791193 -2.18522096 16.0425938 -2.1875 12.5625 C-2.19974609 11.58216797 -2.21199219 10.60183594 -2.22460938 9.59179688 C-2.22750977 8.18704102 -2.22750977 8.18704102 -2.23046875 6.75390625 C-2.23457764 5.89095947 -2.23868652 5.0280127 -2.24291992 4.13891602 C-2 2 -2 2 0 0 Z " fill="#F3F8FC" transform="translate(734,299)"/>
<path d="M0 0 C4.55555556 0.55555556 4.55555556 0.55555556 6 2 C6.25098924 5.47208807 6.18522096 8.9574062 6.1875 12.4375 C6.19974609 13.41783203 6.21199219 14.39816406 6.22460938 15.40820312 C6.22750977 16.81295898 6.22750977 16.81295898 6.23046875 18.24609375 C6.23457764 19.10904053 6.23868652 19.9719873 6.24291992 20.86108398 C6 23 6 23 4 25 C-0.55555556 24.44444444 -0.55555556 24.44444444 -2 23 C-2.25098924 19.52791193 -2.18522096 16.0425938 -2.1875 12.5625 C-2.19974609 11.58216797 -2.21199219 10.60183594 -2.22460938 9.59179688 C-2.22750977 8.18704102 -2.22750977 8.18704102 -2.23046875 6.75390625 C-2.23457764 5.89095947 -2.23868652 5.0280127 -2.24291992 4.13891602 C-2 2 -2 2 0 0 Z " fill="#F7FAFB" transform="translate(734,223)"/>
<path d="M0 0 C4.55555556 0.55555556 4.55555556 0.55555556 6 2 C6.25098924 5.47208807 6.18522096 8.9574062 6.1875 12.4375 C6.19974609 13.41783203 6.21199219 14.39816406 6.22460938 15.40820312 C6.22750977 16.81295898 6.22750977 16.81295898 6.23046875 18.24609375 C6.23457764 19.10904053 6.23868652 19.9719873 6.24291992 20.86108398 C6 23 6 23 4 25 C-0.55555556 24.44444444 -0.55555556 24.44444444 -2 23 C-2.25098924 19.52791193 -2.18522096 16.0425938 -2.1875 12.5625 C-2.19974609 11.58216797 -2.21199219 10.60183594 -2.22460938 9.59179688 C-2.22750977 8.18704102 -2.22750977 8.18704102 -2.23046875 6.75390625 C-2.23457764 5.89095947 -2.23868652 5.0280127 -2.24291992 4.13891602 C-2 2 -2 2 0 0 Z " fill="#F8FBFC" transform="translate(734,184)"/>
<path d="M0 0 C3 0.125 3 0.125 4 1.125 C4.0991657 2.74757544 4.13079777 4.37439831 4.1328125 6 C4.13474609 7.47726562 4.13474609 7.47726562 4.13671875 8.984375 C4.13285156 10.02078125 4.12898437 11.0571875 4.125 12.125 C4.12886719 13.16140625 4.13273438 14.1978125 4.13671875 15.265625 C4.13542969 16.25046875 4.13414062 17.2353125 4.1328125 18.25 C4.13168457 19.16007812 4.13055664 20.07015625 4.12939453 21.0078125 C4 23.125 4 23.125 3 24.125 C0.5625 24.3125 0.5625 24.3125 -2 24.125 C-4 22.125 -4 22.125 -4.24291992 19.98608398 C-4.23881104 19.12313721 -4.23470215 18.26019043 -4.23046875 17.37109375 C-4.22853516 16.43458984 -4.22660156 15.49808594 -4.22460938 14.53320312 C-4.21236328 13.55287109 -4.20011719 12.57253906 -4.1875 11.5625 C-4.18685547 10.57830078 -4.18621094 9.59410156 -4.18554688 8.58007812 C-4.13339617 0.17222484 -4.13339617 0.17222484 0 0 Z " fill="#F5F9FC" transform="translate(736,337.875)"/>
<path d="M0 0 C3.125 0.375 3.125 0.375 6 1 C6.02887512 4.64581687 6.04675585 8.29160463 6.0625 11.9375 C6.07087891 12.97841797 6.07925781 14.01933594 6.08789062 15.09179688 C6.09111328 16.08115234 6.09433594 17.07050781 6.09765625 18.08984375 C6.10289307 19.00628662 6.10812988 19.92272949 6.11352539 20.86694336 C6 23 6 23 5 24 C2 24.125 2 24.125 -1 24 C-3.35955511 21.64044489 -2.18542405 15.73247174 -2.1875 12.5625 C-2.19974609 11.58216797 -2.21199219 10.60183594 -2.22460938 9.59179688 C-2.22750977 8.18704102 -2.22750977 8.18704102 -2.23046875 6.75390625 C-2.23457764 5.89095947 -2.23868652 5.0280127 -2.24291992 4.13891602 C-2 2 -2 2 0 0 Z " fill="#F7FAFC" transform="translate(734,146)"/>
<path d="M0 0 C3 0.125 3 0.125 4 1.125 C4.25098924 4.59708807 4.18522096 8.0824062 4.1875 11.5625 C4.19974609 12.54283203 4.21199219 13.52316406 4.22460938 14.53320312 C4.22750977 15.93795898 4.22750977 15.93795898 4.23046875 17.37109375 C4.23457764 18.23404053 4.23868652 19.0969873 4.24291992 19.98608398 C4 22.125 4 22.125 2 24.125 C-2.55555556 23.56944444 -2.55555556 23.56944444 -4 22.125 C-4.09899523 20.57544441 -4.13079524 19.02146327 -4.1328125 17.46875 C-4.13410156 16.52902344 -4.13539063 15.58929688 -4.13671875 14.62109375 C-4.13285156 13.63238281 -4.12898437 12.64367187 -4.125 11.625 C-4.12886719 10.63628906 -4.13273438 9.64757812 -4.13671875 8.62890625 C-4.13542969 7.68917969 -4.13414062 6.74945313 -4.1328125 5.78125 C-4.13168457 4.91306641 -4.13055664 4.04488281 -4.12939453 3.15039062 C-3.91897436 -0.14328062 -3.36486222 0.14020259 0 0 Z " fill="#F9FBFC" transform="translate(736,261.875)"/>
<path d="M0 0 C2.875 2.375 2.875 2.375 5 5 C5 5.66 5 6.32 5 7 C-0.28 7 -5.56 7 -11 7 C-8.51752211 0.79380528 -6.60571843 -0.92480058 0 0 Z " fill="#1180F5" transform="translate(695,251)"/>
<path d="M0 0 C4.29 0 8.58 0 13 0 C13 1.65 13 3.3 13 5 C11 7 11 7 8.1875 7.4375 C3.9898561 6.8613528 2.61915415 5.23542571 0 2 C0 1.34 0 0.68 0 0 Z " fill="#117FF3" transform="translate(684,266)"/>
<path d="M0 0 C1.45903258 0.30921884 2.91720722 0.62248799 4.375 0.9375 C5.18710937 1.11152344 5.99921875 1.28554688 6.8359375 1.46484375 C9 2 9 2 11 3 C10.67 4.65 10.34 6.3 10 8 C2.57391304 8.48695652 2.57391304 8.48695652 -0.0625 6.25 C-1.16577711 3.60213494 -0.80156509 2.66814674 0 0 Z " fill="#0978ED" transform="translate(646,265)"/>
<path d="M0 0 C3.1875 0.3125 3.1875 0.3125 5.5625 2.3125 C6.09875 2.9725 6.635 3.6325 7.1875 4.3125 C6.1975 5.7975 6.1975 5.7975 5.1875 7.3125 C1.24023438 7.74155061 -1.42492079 7.39716413 -4.8125 5.3125 C-3.70588235 0.41176471 -3.70588235 0.41176471 0 0 Z " fill="#1782F1" transform="translate(650.8125,250.6875)"/>
<path d="M0 0 C1.32 0.33 2.64 0.66 4 1 C1.36 2.65 -1.28 4.3 -4 6 C-2 2 -2 2 0 0 Z " fill="#0B7BF2" transform="translate(479,243)"/>
</svg>
